<?xml version="1.0" standalone="no"?>
<!DOCTYPE svg PUBLIC "-//W3C//DTD SVG 20010904//EN"
 "http://www.w3.org/TR/2001/REC-SVG-20010904/DTD/svg10.dtd">
<svg version="1.0" xmlns="http://www.w3.org/2000/svg"
 width="600.000000pt" height="601.000000pt" viewBox="0 0 600.000000 601.000000"
 preserveAspectRatio="xMidYMid meet">

<g transform="translate(0.000000,601.000000) scale(0.100000,-0.100000)"
fill="#000000" stroke="none">
<path d="M3075 4484 c-198 -19 -227 -22 -295 -33 -36 -5 -83 -12 -104 -16 -21
-3 -48 -7 -60 -10 -12 -3 -34 -7 -49 -9 -52 -9 -212 -57 -257 -78 -84 -39
-126 -75 -169 -147 -119 -200 -333 -437 -524 -579 -121 -90 -152 -109 -198
-117 -34 -6 -40 -14 -87 -98 -99 -181 -152 -355 -152 -494 0 -80 24 -190 47
-215 38 -42 158 -50 315 -22 101 18 233 14 343 -10 59 -12 61 -12 101 15 56
38 77 73 76 126 -2 55 -29 96 -79 116 -41 16 -81 53 -70 64 29 28 161 -38 191
-95 23 -45 29 -97 16 -138 -16 -47 -71 -108 -127 -141 -42 -24 -47 -25 -105
-13 -111 21 -224 29 -290 19 -35 -5 -86 -12 -113 -15 -51 -6 -51 -6 -47 -40 5
-43 -32 -108 -93 -162 -91 -80 -43 -146 140 -187 44 -10 105 -31 135 -47 46
-24 63 -28 100 -23 31 4 51 2 64 -8 18 -13 17 -14 -9 -35 -16 -13 -42 -22 -61
-22 -18 0 -35 -4 -38 -8 -3 -5 -47 -26 -98 -47 -132 -55 -233 -155 -212 -210
13 -33 93 -62 206 -74 94 -10 187 -52 303 -136 47 -34 108 -68 149 -82 78 -28
237 -61 341 -71 109 -11 516 -7 655 7 69 6 143 13 165 15 103 10 415 59 460
73 219 69 414 237 523 448 59 115 84 191 117 355 26 126 26 125 29 385 2 187
-1 271 -15 380 -10 77 -20 160 -23 185 -6 53 -60 331 -86 445 -10 45 -21 93
-24 108 -2 15 -7 30 -9 34 -3 5 -7 31 -11 60 -24 200 -132 363 -300 453 l-63
34 -94 -38 c-52 -21 -116 -47 -144 -58 -87 -35 -207 -111 -276 -175 -79 -75
-123 -159 -120 -233 3 -100 -52 -345 -103 -455 -45 -97 -87 -141 -171 -180
-87 -40 -115 -49 -115 -37 0 12 93 91 141 120 79 48 161 282 178 509 7 93 14
123 39 175 59 125 163 213 368 315 127 62 148 71 187 72 36 2 6 19 -52 30
l-60 12 -118 -56 c-193 -92 -285 -171 -350 -298 -36 -72 -52 -129 -64 -236 -6
-52 -21 -129 -35 -171 -37 -117 -130 -249 -186 -263 -13 -3 -49 -15 -82 -27
-101 -36 -99 -15 4 48 78 47 101 68 136 118 52 78 80 159 99 297 26 188 69
286 172 397 67 73 148 130 240 169 l66 29 -50 7 c-59 8 -150 5 -318 -11z m871
-225 c71 -37 91 -54 111 -94 14 -30 14 -30 -4 -8 -10 13 -55 36 -101 53 -71
26 -88 29 -125 20 -289 -64 -366 -94 -459 -179 -30 -27 -66 -72 -81 -100 -33
-60 -71 -186 -99 -326 -24 -122 -25 -136 -34 -306 l-7 -135 52 -49 c86 -81
148 -231 203 -492 16 -77 24 -100 29 -82 9 36 37 88 75 140 19 26 40 65 48 87
14 39 14 40 -11 51 -41 19 -138 97 -183 148 -121 136 -145 216 -145 483 1 270
29 358 158 481 69 65 204 134 299 153 13 2 43 9 68 14 25 6 75 13 111 17 61 6
68 4 97 -20 35 -29 89 -131 98 -185 l6 -35 -15 27 c-31 56 -109 148 -125 149
-32 2 -154 -9 -173 -15 -8 -3 -25 -7 -39 -10 -14 -2 -52 -13 -85 -24 -171 -58
-301 -188 -319 -317 l-6 -40 11 34 c28 90 235 229 379 253 161 27 280 -75 325
-280 3 -12 8 -32 11 -44 41 -167 18 -378 -64 -586 l-39 -100 14 -68 c23 -108
13 -254 -21 -326 -25 -53 -114 -148 -138 -148 -5 0 10 -15 33 -33 80 -60 116
-173 106 -329 -5 -72 -12 -101 -41 -162 -90 -194 -200 -232 -320 -112 -76 77
-110 161 -110 281 -1 82 2 96 31 155 18 36 54 89 81 118 27 29 46 54 43 56 -3
2 -23 6 -44 10 -23 4 -54 21 -77 42 l-38 35 -6 -68 c-9 -96 -44 -280 -62 -322
-52 -122 -82 -170 -159 -247 -121 -123 -266 -187 -455 -200 -47 -4 -98 -13
-114 -21 -103 -53 -303 4 -386 110 -26 33 -50 107 -50 153 0 37 36 86 81 109
16 9 57 18 91 22 35 3 69 11 77 17 15 11 227 274 455 563 l128 163 -32 120
c-63 244 -52 295 73 334 10 3 15 10 12 16 -8 13 11 246 31 370 17 114 69 310
97 365 49 101 157 205 257 248 19 9 52 23 73 32 56 24 235 64 293 64 40 1 66
-6 110 -30z m-1559 -344 c47 -28 55 -41 21 -32 -34 9 -163 -21 -216 -50 -26
-14 -76 -46 -111 -72 -84 -61 -144 -101 -154 -101 -4 0 10 24 33 53 69 93 278
224 359 226 13 1 44 -10 68 -24z m135 -282 c-37 -18 -58 -39 -102 -100 -37
-53 -149 -146 -214 -178 -78 -39 -129 -33 -188 22 l-26 25 -12 -21 c-13 -26
-30 -19 -30 12 1 59 86 109 350 208 89 33 148 46 215 48 l40 1 -33 -17z m107
-717 c5 -6 17 -49 26 -96 l17 -86 41 -16 c23 -9 61 -22 84 -29 24 -7 50 -20
59 -30 15 -17 15 -21 -11 -64 -14 -26 -32 -48 -39 -51 -7 -3 -66 7 -132 22
-65 14 -125 26 -131 27 -27 1 -41 37 -66 171 -20 105 -24 143 -15 153 14 17
153 16 167 -1z m-242 -18 c11 -18 32 -320 22 -338 -10 -20 -100 -53 -122 -44
-18 6 -28 34 -26 69 0 11 -5 83 -12 159 -12 132 -11 139 6 152 24 18 121 18
132 2z"/>
<path d="M3635 3876 c-78 -24 -184 -88 -231 -138 -45 -48 -46 -51 -42 -99 6
-59 32 -91 126 -151 34 -23 62 -47 62 -54 0 -7 -26 -31 -59 -53 -69 -47 -96
-93 -86 -150 9 -52 35 -88 106 -146 121 -98 155 -216 95 -334 -15 -30 -42 -75
-60 -100 -42 -60 -56 -94 -56 -136 0 -45 28 -63 119 -77 68 -10 74 -9 127 17
62 30 107 83 126 149 14 47 19 211 8 241 -22 58 -20 112 4 167 61 138 96 298
96 434 -1 113 -4 138 -24 210 -52 183 -100 235 -218 233 -29 0 -71 -6 -93 -13z
m150 -179 c38 -38 52 -82 59 -182 8 -116 -37 -329 -95 -451 -28 -59 -28 -63
-14 -98 15 -35 15 -37 -2 -27 -30 15 -51 43 -78 104 -49 105 -41 185 25 265
16 20 30 45 30 55 0 10 5 15 10 12 13 -8 13 -51 -1 -78 -7 -12 -25 -39 -42
-60 -32 -42 -34 -77 -5 -147 l15 -35 18 55 c10 30 38 102 63 160 44 101 46
109 46 205 0 80 -3 108 -19 140 -17 34 -25 40 -56 43 -20 2 -60 -6 -89 -17
-30 -11 -55 -19 -57 -18 -7 8 64 81 91 93 47 20 65 17 101 -19z"/>
<path d="M3275 3557 c-13 -166 17 -371 63 -442 52 -81 212 -229 228 -212 14
13 -42 90 -109 150 -140 126 -157 242 -47 341 l43 38 -34 26 c-59 46 -99 94
-118 146 l-19 51 -7 -98z"/>
<path d="M3039 3114 c-19 -23 -16 -73 11 -184 57 -244 129 -411 209 -481 49
-44 87 -66 97 -56 21 21 -12 253 -62 424 -55 190 -137 313 -208 313 -19 0 -39
-7 -47 -16z"/>
<path d="M2930 2513 c-68 -87 -189 -239 -268 -338 l-145 -179 24 -16 c13 -8
46 -32 73 -52 27 -20 53 -35 57 -32 5 3 106 150 224 327 l216 323 -28 63 -28
63 -125 -159z"/>
<path d="M2937 2176 l-205 -306 0 -73 c0 -41 -5 -84 -11 -96 -12 -21 -11 -21
31 -16 81 11 188 36 193 46 7 10 -1 11 -66 9 -53 -2 -129 16 -129 30 0 6 26
10 58 10 98 0 151 22 231 96 129 119 213 249 250 383 12 41 19 76 17 79 -10 9
-24 -9 -30 -39 -8 -44 -51 -125 -96 -185 -44 -59 -143 -147 -168 -149 -9 -1
-42 -7 -73 -15 -87 -20 -89 -8 -8 35 143 74 259 216 291 355 l12 51 -46 46
-46 45 -205 -306z"/>
<path d="M3610 2293 c-90 -93 -105 -128 -105 -248 0 -121 23 -182 91 -245 36
-33 51 -40 83 -40 33 0 44 6 68 34 15 19 42 61 58 93 27 53 30 68 33 175 4
142 -11 201 -64 248 -19 16 -40 30 -47 30 -7 0 -22 3 -35 6 -19 6 -34 -4 -82
-53z"/>
<path d="M3301 2113 c-41 -90 -163 -237 -276 -332 -50 -42 -41 -45 25 -7 105
59 187 156 240 282 17 42 30 78 27 80 -2 2 -9 -8 -16 -23z"/>
<path d="M2298 1914 c-24 -13 -28 -21 -28 -60 0 -24 6 -60 14 -78 29 -70 141
-126 254 -126 62 0 71 3 96 29 17 17 30 44 33 67 6 48 -15 78 -100 140 l-59
44 -92 0 c-61 -1 -100 -6 -118 -16z"/>
<path d="M2245 3516 c-77 -29 -157 -62 -179 -73 l-38 -20 36 -17 c49 -23 97
-15 174 31 49 29 169 134 152 133 -3 -1 -68 -25 -145 -54z"/>
<path d="M2541 2773 c10 -54 18 -103 19 -109 0 -9 182 -54 218 -54 27 0 9 18
-30 29 -24 7 -47 16 -53 21 -5 4 -22 10 -37 14 -31 7 -43 25 -52 76 -3 19 -8
46 -11 60 -4 14 -7 32 -9 40 -2 9 -16 16 -33 18 l-30 3 18 -98z"/>
<path d="M2315 2723 c7 -89 14 -128 23 -131 11 -3 12 17 7 104 -7 131 -12 154
-28 154 -9 0 -10 -27 -2 -127z"/>
<path d="M1790 4419 c-25 -4 -56 -9 -70 -12 -31 -6 -100 -38 -100 -47 0 -3 20
-25 44 -49 l44 -43 61 43 61 43 46 -44 c71 -70 71 -70 13 -139 l-50 -60 41
-61 c22 -33 42 -60 44 -60 9 0 106 139 116 166 35 90 31 166 -11 210 -39 42
-152 67 -239 53z"/>
<path d="M1539 4277 c-78 -128 -81 -255 -7 -324 42 -39 97 -56 203 -61 96 -4
101 -3 123 20 l22 25 -49 75 c-66 102 -241 308 -261 308 -3 0 -17 -19 -31 -43z"/>
<path d="M1243 4270 c-111 -23 -149 -80 -109 -159 18 -35 84 -93 99 -89 7 2
49 12 93 22 l82 19 6 48 c4 26 15 72 25 101 13 37 15 55 7 55 -6 0 -45 3 -86
6 -41 3 -94 2 -117 -3z"/>
<path d="M1782 4246 l-33 -24 25 -28 25 -29 31 31 c29 28 31 33 19 53 -17 26
-26 26 -67 -3z"/>
<path d="M1312 3976 c-94 -26 -139 -60 -176 -136 -26 -53 -26 -66 3 -142 55
-145 215 -191 351 -101 75 49 209 154 244 191 l28 30 -48 7 c-147 19 -243 69
-274 145 -15 35 -19 36 -128 6z m66 -106 c19 -12 40 -37 49 -58 13 -32 14 -42
2 -77 -24 -69 -105 -104 -169 -72 -33 16 -70 73 -70 107 0 34 37 91 70 107 36
18 80 16 118 -7z"/>
<path d="M1278 3819 c-13 -7 -18 -22 -18 -50 0 -33 4 -41 26 -51 60 -28 116
58 62 96 -26 18 -46 20 -70 5z"/>
</g>
</svg>
