<?xml version="1.0" standalone="no"?>
<!DOCTYPE svg PUBLIC "-//W3C//DTD SVG 20010904//EN"
 "http://www.w3.org/TR/2001/REC-SVG-20010904/DTD/svg10.dtd">
<svg version="1.0" xmlns="http://www.w3.org/2000/svg"
 width="141.000000pt" height="113.000000pt" viewBox="0 0 141.000000 113.000000"
 preserveAspectRatio="xMidYMid meet">

<g transform="translate(0.000000,113.000000) scale(0.100000,-0.100000)"
fill="#000000" stroke="none">
<path d="M296 842 c159 -147 414 -374 419 -374 8 -1 418 366 450 402 l18 20
-469 0 -469 -1 51 -47z"/>
<path d="M210 551 l0 -329 169 171 c93 95 167 175 165 179 -3 4 -79 75 -169
158 l-165 151 0 -330z"/>
<path d="M1205 869 c-5 -9 -76 -76 -158 -149 -81 -73 -146 -138 -144 -143 1
-5 72 -83 157 -173 l155 -165 3 161 c4 266 -2 487 -13 469z"/>
<path d="M793 490 l-77 -69 -67 60 c-37 32 -71 59 -75 59 -5 0 -81 -72 -169
-160 l-160 -160 475 0 474 0 -59 62 c-33 35 -107 111 -163 170 l-103 106 -76
-68z"/>
</g>
</svg>
