<?xml version="1.0" standalone="no"?>
<!DOCTYPE svg PUBLIC "-//W3C//DTD SVG 20010904//EN"
 "http://www.w3.org/TR/2001/REC-SVG-20010904/DTD/svg10.dtd">
<svg version="1.0" xmlns="http://www.w3.org/2000/svg"
 width="2351.000000pt" height="595.000000pt" viewBox="0 0 2351.000000 595.000000"
 preserveAspectRatio="xMidYMid meet">

<g transform="translate(0.000000,595.000000) scale(0.100000,-0.100000)"
fill="#000000" stroke="none">
<path d="M3575 3587 l-7 -84 -207 -121 c-219 -129 -296 -180 -251 -167 14 4
39 16 56 26 17 11 35 19 39 19 4 0 5 -98 2 -217 -4 -120 -7 -349 -7 -509 l0
-291 -30 -44 c-16 -24 -30 -47 -30 -50 0 -12 158 47 199 74 23 15 53 46 68 69
l28 42 -3 531 -2 531 67 39 c37 22 70 41 74 43 8 3 1 -1420 -6 -1444 -5 -18
-141 -37 -210 -31 -102 10 -172 42 -240 111 -141 141 -194 362 -182 741 6 187
25 294 75 428 50 132 155 300 218 348 47 36 34 35 -32 -2 -157 -87 -283 -197
-359 -314 -49 -75 -98 -188 -127 -291 -19 -69 -22 -105 -22 -279 -1 -232 7
-269 96 -447 42 -84 65 -116 132 -183 134 -134 247 -179 446 -179 184 1 366
46 458 116 134 100 273 375 317 623 40 230 3 568 -77 704 -33 56 -229 261
-249 261 -6 0 -47 -22 -92 -48 -140 -83 -126 -83 -124 3 1 41 -1 75 -5 75 -3
0 -9 -38 -13 -83z m90 -128 c94 -87 205 -259 233 -362 10 -36 9 -38 -21 -55
-24 -13 -56 -17 -132 -17 -155 1 -145 -17 -145 250 0 147 4 225 10 225 6 0 30
-18 55 -41z m256 -598 c-1 -122 -23 -360 -37 -382 -2 -4 -21 -1 -42 8 -42 18
-158 20 -209 4 l-33 -10 0 268 0 268 68 -14 c71 -15 134 -12 199 11 32 11 39
11 46 0 4 -8 8 -77 8 -153z m-83 -402 c39 -13 40 -26 11 -112 -28 -84 -74
-169 -121 -222 -38 -44 -95 -85 -117 -85 -8 0 -11 59 -11 205 0 228 -6 210 76
225 53 9 111 5 162 -11z"/>
<path d="M5585 3643 c-30 -47 -72 -81 -113 -94 -33 -10 -49 -9 -98 6 -33 10
-82 31 -109 46 -28 15 -55 25 -61 21 -20 -14 -183 -231 -204 -272 -25 -48 -21
-64 7 -25 10 14 26 36 35 49 l18 24 79 -40 c51 -25 99 -41 135 -45 l56 -6 -2
-155 -3 -155 -40 -21 c-31 -17 -58 -21 -125 -21 -160 0 -150 -7 -235 171 -83
173 -125 247 -198 347 -72 99 -119 131 -212 147 -143 25 -251 -14 -296 -107
-21 -43 -24 -63 -26 -183 l-2 -135 16 50 c18 60 42 88 108 126 36 21 63 29 98
29 l47 0 0 -250 0 -250 -27 0 c-64 -1 -156 -68 -168 -123 -2 -12 -6 -64 -8
-116 -3 -88 -2 -93 12 -70 9 13 28 37 43 52 25 25 33 28 85 25 l58 -3 3 -193
c2 -189 2 -194 -18 -199 -12 -3 -53 -21 -91 -39 -96 -46 -178 -129 -208 -209
-12 -33 -32 -70 -43 -82 -23 -25 -14 -32 11 -9 9 8 52 27 96 42 67 24 97 28
185 29 96 0 110 -2 157 -27 28 -15 54 -32 58 -38 14 -22 38 -7 102 63 37 39
94 99 128 132 33 33 67 69 75 79 14 18 14 19 -9 5 -58 -35 -67 -39 -89 -39
-12 0 -44 11 -70 24 -54 28 -135 51 -205 61 l-48 6 3 137 3 137 45 23 c36 18
61 22 134 22 49 0 118 -5 153 -11 l65 -11 74 -155 c130 -273 254 -456 336
-499 64 -33 61 -74 57 691 l-4 695 50 24 c78 36 126 102 160 221 10 33 24 73
32 88 19 38 10 45 -12 10z m-1021 -325 c41 -47 103 -169 141 -273 14 -38 59
-153 99 -255 40 -102 72 -187 70 -188 -1 -2 -26 1 -54 7 -67 14 -218 14 -261
0 -19 -7 -42 -19 -51 -27 -17 -14 -18 -7 -18 134 0 82 -3 258 -7 390 -3 133
-3 249 0 258 9 23 35 8 81 -46z m761 -996 c-10 -10 -57 44 -95 108 -42 72 -94
191 -168 382 l-49 127 31 -7 c17 -4 69 -7 116 -7 65 0 94 5 125 20 l40 20 3
-319 c1 -175 0 -321 -3 -324z"/>
<path d="M6232 3632 c-23 -24 -28 -24 -120 -20 -54 3 -136 13 -183 23 -84 18
-88 18 -134 1 -79 -31 -127 -82 -205 -221 -19 -33 -27 -55 -19 -49 24 19 121
51 174 58 34 4 68 1 105 -10 152 -45 278 -1 359 125 27 42 56 112 48 116 -1 0
-13 -10 -25 -23z"/>
<path d="M6499 3634 c-13 -14 -33 -30 -44 -35 -11 -5 -58 -38 -104 -72 -68
-50 -91 -75 -117 -123 -31 -55 -63 -154 -70 -214 -14 -125 -15 -208 -4 -373
20 -286 2 -400 -78 -489 -20 -23 -32 -39 -27 -37 164 73 256 130 282 176 21
36 44 121 59 208 l6 40 41 -80 c51 -102 88 -202 143 -394 25 -84 54 -171 65
-192 42 -84 134 -158 194 -159 15 0 42 35 105 135 47 75 98 159 113 188 l29
52 -32 -34 c-39 -41 -94 -52 -138 -26 -47 28 -99 117 -132 229 -75 249 -152
414 -234 501 l-51 54 76 168 c53 117 80 167 90 164 132 -39 170 -38 230 2 63
43 111 141 127 263 9 65 8 67 -7 44 -58 -90 -111 -101 -192 -40 -48 36 -69 42
-69 20 0 -5 -20 -51 -44 -102 -42 -90 -103 -220 -244 -528 l-67 -145 -9 205
c-14 313 13 471 95 564 43 49 50 75 8 30z"/>
<path d="M18399 3637 c-27 -59 -152 -113 -222 -97 -41 9 -95 40 -122 70 -10
11 -22 20 -26 20 -9 0 -175 -213 -229 -293 -43 -65 -32 -70 19 -9 l42 50 67
-29 c37 -15 97 -33 135 -40 l67 -13 -2 -174 -3 -175 -49 -17 c-60 -20 -142
-12 -211 21 -37 17 -50 30 -63 63 -36 90 -127 265 -177 341 -111 167 -210 232
-372 242 -132 9 -189 -21 -234 -122 -19 -43 -23 -72 -26 -200 l-3 -150 18 51
c45 126 126 208 198 202 l39 -3 3 -245 2 -245 -41 -2 c-54 -3 -103 -35 -125
-81 -19 -41 -24 -128 -11 -206 l9 -50 25 32 c30 39 72 62 113 62 l30 0 0 -210
0 -210 -22 0 c-43 0 -142 -56 -190 -108 -26 -28 -62 -81 -79 -119 -18 -37 -39
-81 -47 -98 l-16 -30 24 17 c88 63 194 98 296 98 87 0 141 -18 210 -70 29 -22
55 -40 58 -40 8 0 174 314 180 343 9 39 1 34 -30 -20 -15 -27 -28 -49 -29 -51
-1 -1 -27 9 -58 22 -66 30 -163 56 -205 56 -63 0 -62 -1 -62 156 l0 143 63 20
c131 40 235 36 341 -12 50 -23 53 -26 69 -85 39 -142 146 -351 223 -440 48
-55 127 -112 156 -112 17 0 18 29 18 704 l0 704 33 7 c108 24 194 125 212 250
4 28 12 61 17 74 12 33 1 39 -13 8z m-1075 -318 c80 -70 204 -266 277 -437 49
-114 104 -264 113 -309 l7 -31 -63 26 c-83 34 -210 36 -308 4 -35 -12 -65 -20
-66 -19 -1 1 -5 181 -9 400 -4 273 -3 397 4 397 6 0 26 -14 45 -31z m586 -415
c47 -18 133 -17 175 0 l35 15 0 -316 c0 -312 0 -316 -19 -299 -34 31 -98 166
-150 316 -27 80 -63 183 -80 228 -26 71 -28 83 -13 77 9 -4 33 -14 52 -21z"/>
<path d="M1725 3616 c-27 -18 -142 -83 -255 -144 -278 -150 -284 -153 -314
-205 -33 -56 -56 -159 -56 -254 l0 -73 -34 0 c-47 0 -95 -36 -133 -100 -44
-73 -44 -120 0 -184 17 -27 39 -62 49 -78 23 -42 30 -47 28 -18 -6 68 1 102
25 125 41 42 61 34 73 -32 27 -140 19 -220 -27 -295 -17 -27 -31 -54 -31 -59
0 -20 116 -10 161 14 112 59 147 191 124 467 -13 156 -11 372 4 445 18 83 56
160 92 186 17 12 33 18 37 14 11 -10 4 -852 -8 -1001 -12 -151 -26 -200 -64
-229 -40 -29 -140 -26 -230 9 -164 63 -240 11 -325 -223 -30 -82 -30 -105 1
-51 42 73 143 91 253 44 154 -67 187 -68 251 -12 90 79 136 255 150 571 l7
147 79 0 78 0 0 -223 0 -223 -31 -30 c-70 -65 -103 -145 -83 -198 10 -25 22
-19 17 8 -10 49 93 73 164 39 20 -9 56 -43 81 -75 l46 -59 90 89 c136 133 249
222 284 222 6 0 13 -12 16 -26 14 -56 77 -172 117 -217 23 -27 59 -57 80 -68
l39 -19 41 82 c54 107 105 187 135 211 29 22 32 42 5 27 -54 -28 -128 -1 -157
57 -17 35 -19 80 -27 557 l-8 520 40 35 c39 35 111 133 111 152 0 6 -17 -2
-37 -16 -21 -14 -46 -25 -56 -25 -31 0 -73 28 -120 80 -25 27 -48 50 -52 50
-4 0 -35 -25 -68 -56 -58 -52 -166 -114 -200 -114 -18 0 -27 41 -27 121 0 33
-3 59 -7 59 -5 0 -7 -40 -6 -90 l2 -90 -27 0 c-44 0 -132 60 -184 125 -27 33
-52 61 -56 62 -4 2 -29 -12 -57 -31z m-130 -221 l75 -76 0 -172 c0 -95 -4
-177 -8 -183 -4 -6 -41 -15 -83 -18 l-76 -7 -5 258 c-5 240 -3 271 19 273 1 0
36 -34 78 -75z m545 -24 c30 -18 65 -37 78 -43 22 -11 22 -14 22 -195 l0 -183
-90 0 -90 0 0 236 c0 188 3 234 13 226 6 -5 37 -24 67 -41z m-106 -588 c-4
-340 -7 -619 -8 -620 -1 -1 -28 18 -59 43 l-57 44 0 509 0 509 58 65 c31 36
60 66 65 66 4 1 4 -277 1 -616z m190 -125 c3 -13 6 -107 6 -209 l0 -185 -32
-16 c-18 -8 -54 -32 -81 -52 -26 -20 -49 -36 -52 -36 -3 0 -5 117 -5 260 l0
260 79 0 c73 0 79 -2 85 -22z"/>
<path d="M19938 3615 c-100 -20 -170 -83 -244 -220 -20 -38 -46 -82 -56 -97
-24 -35 -6 -37 21 -2 22 29 99 58 188 73 97 15 167 -9 198 -70 14 -25 14 -35
3 -65 -9 -25 -17 -33 -28 -28 -8 3 -46 12 -84 20 -191 41 -276 -45 -292 -296
l-5 -85 23 45 c26 50 104 110 145 110 32 0 79 -34 97 -68 12 -25 4 -50 -122
-369 -118 -301 -138 -343 -156 -343 -33 0 -156 -63 -204 -105 -23 -20 -63 -67
-89 -103 -25 -37 -60 -82 -77 -99 -38 -42 -22 -43 27 -2 104 85 353 87 519 4
79 -40 63 -52 173 130 43 72 87 141 97 154 27 35 14 38 -32 6 l-40 -28 -78 23
c-42 13 -114 26 -158 29 l-82 6 54 135 53 135 278 3 278 2 59 -162 c81 -225
135 -334 197 -402 29 -31 64 -63 79 -71 25 -13 29 -12 42 3 29 33 218 312 218
321 0 5 -18 2 -41 -5 -24 -9 -55 -12 -75 -8 -48 9 -108 55 -138 106 -14 24
-68 165 -121 313 -53 149 -119 333 -147 410 -27 77 -61 174 -75 215 -14 41
-31 89 -38 105 -7 17 -20 53 -29 81 -29 89 -68 138 -135 168 -82 36 -135 45
-203 31z m227 -630 c62 -166 95 -254 95 -260 0 -3 -85 -5 -190 -5 -119 0 -190
4 -190 10 0 5 16 52 36 102 20 51 58 149 85 218 26 69 53 139 60 155 11 30 11
30 40 -50 16 -44 45 -120 64 -170z m136 -362 c13 -37 26 -71 27 -75 2 -4 -116
-8 -261 -8 l-266 0 31 75 30 75 207 0 207 0 25 -67z"/>
<path d="M7690 3613 c-57 -10 -173 -76 -233 -133 -71 -66 -109 -135 -126 -225
-37 -200 83 -313 368 -347 53 -6 97 -12 99 -14 2 -1 -4 -16 -12 -33 -14 -27
-20 -30 -54 -25 -20 2 -87 9 -147 14 -213 17 -304 75 -308 197 l-2 44 -23 -28
c-74 -90 -97 -172 -68 -247 21 -56 94 -125 174 -165 66 -33 219 -81 259 -81
l24 0 -32 -45 c-37 -51 -123 -136 -156 -154 -22 -11 -22 -11 -8 24 30 71 8
119 -70 155 -74 34 -117 23 -141 -35 -37 -91 7 -200 89 -219 64 -15 214 88
297 203 l45 63 140 -5 c154 -6 239 -25 280 -63 27 -25 30 -46 15 -109 -5 -22
-7 -41 -6 -43 2 -2 29 28 60 65 104 125 110 213 20 292 -60 53 -170 92 -351
127 -22 4 -22 5 -5 40 l17 36 60 -6 c33 -4 101 -14 150 -22 273 -46 357 -182
256 -417 -24 -55 -124 -180 -189 -234 l-50 -42 -68 33 c-98 48 -166 66 -270
73 -223 14 -430 -82 -652 -304 -111 -111 -138 -151 -49 -73 56 49 206 122 302
145 43 11 107 17 165 17 150 0 267 -46 426 -167 7 -5 15 -7 17 -5 102 135 280
343 394 462 177 185 239 329 202 473 -5 22 -11 45 -12 51 -5 20 -39 67 -71 97
-73 67 -224 119 -391 134 -33 2 -62 6 -64 9 -7 7 72 97 217 246 78 81 142 150
142 153 0 14 -24 2 -60 -31 l-40 -36 -40 35 c-59 50 -154 98 -225 113 -56 13
-240 17 -295 7z m125 -137 c28 -12 67 -42 88 -65 39 -43 107 -171 107 -201 0
-9 -12 -31 -28 -49 l-27 -33 -145 17 c-190 21 -241 36 -296 87 -53 49 -64 89
-39 142 51 108 220 158 340 102z"/>
<path d="M14659 3616 c-2 -2 -19 -6 -36 -9 -43 -7 -94 -39 -134 -84 -54 -62
-74 -130 -83 -284 -3 -70 -2 -78 6 -49 13 42 117 148 170 173 20 9 52 17 72
17 l36 0 0 -255 0 -255 -34 0 c-73 0 -131 -40 -142 -98 -8 -42 11 -132 40
-186 l21 -41 3 37 c4 44 26 61 75 56 l32 -3 3 -207 c2 -196 1 -208 -16 -208
-35 0 -121 -51 -166 -100 -42 -45 -116 -176 -116 -206 0 -6 -10 -23 -21 -38
-39 -49 -12 -38 56 23 51 46 81 65 123 77 93 27 208 5 313 -61 22 -15 44 -25
48 -23 16 6 233 254 248 283 15 29 15 29 -2 15 -11 -8 -34 -32 -53 -53 -33
-35 -36 -37 -56 -22 -51 38 -170 87 -245 102 l-82 16 3 146 3 146 60 22 c124
44 262 36 360 -21 37 -22 44 -34 94 -157 57 -145 118 -266 176 -353 46 -69
149 -166 177 -166 l21 0 -5 724 -6 725 42 16 c52 21 98 56 126 96 18 24 90
183 90 197 0 2 -12 -5 -27 -16 -50 -35 -104 -52 -168 -52 -53 0 -75 6 -128 34
-36 18 -69 31 -74 27 -5 -3 -51 -60 -103 -126 -51 -66 -106 -135 -123 -152
-17 -18 -28 -33 -25 -33 18 0 66 34 82 58 l18 28 47 -23 c53 -26 152 -53 193
-53 l28 0 -2 -176 -3 -177 -45 -13 c-25 -8 -76 -14 -114 -14 -125 0 -185 32
-206 111 -7 24 -16 49 -20 54 -4 6 -13 30 -20 55 -17 66 -99 227 -150 294 -56
74 -146 142 -214 160 -59 17 -140 29 -147 22z m125 -300 c48 -47 97 -130 183
-306 58 -120 193 -435 193 -451 0 -5 -14 -2 -31 6 -17 9 -63 23 -102 31 -83
18 -154 12 -243 -21 l-61 -21 -7 119 c-3 66 -6 248 -6 404 0 321 -2 315 74
239z m630 -426 c34 0 85 7 112 15 27 8 50 15 52 15 1 0 2 -146 2 -325 0 -179
-2 -325 -5 -325 -30 0 -155 237 -256 485 -33 83 -63 156 -66 163 -4 9 11 6 46
-8 33 -13 75 -20 115 -20z"/>
<path d="M16978 3590 c-16 -17 -49 -44 -73 -60 -69 -48 -151 -127 -184 -178
-64 -100 -62 -88 -67 -642 -3 -288 -9 -531 -15 -565 -23 -130 -64 -179 -149
-178 -61 1 -121 28 -211 96 -140 105 -241 142 -321 117 -85 -25 -135 -82 -188
-214 -41 -101 -39 -115 9 -67 49 49 139 85 199 78 23 -2 75 -21 115 -41 168
-85 366 -82 562 8 116 53 166 118 208 264 21 75 22 91 22 632 0 631 -7 579 90
715 50 70 51 83 3 35z"/>
<path d="M19149 3597 c-21 -45 -98 -49 -251 -12 -124 30 -185 31 -270 5 -98
-30 -190 -121 -246 -242 -29 -64 -28 -68 11 -25 37 41 100 77 137 77 14 0 70
-12 125 -26 107 -28 230 -33 309 -13 66 16 127 68 164 137 18 34 32 63 31 64
-1 2 1 13 5 26 11 33 -1 40 -15 9z"/>
<path d="M11065 3597 c-27 -8 -64 -21 -81 -30 -72 -38 -115 -128 -113 -241 1
-68 16 -170 18 -123 2 42 133 172 183 181 22 4 46 2 58 -4 19 -10 20 -21 20
-158 0 -81 -3 -190 -6 -243 l-7 -97 -65 -4 c-60 -4 -67 -7 -100 -42 -34 -38
-34 -39 -30 -112 4 -58 12 -88 38 -139 37 -73 57 -87 35 -24 -14 39 -14 41 10
65 20 20 33 25 68 22 l42 -3 0 -214 0 -214 -45 -13 c-96 -28 -208 -132 -272
-253 -15 -28 -25 -51 -22 -51 3 0 17 9 32 20 36 27 125 57 203 69 109 18 209
-8 289 -75 25 -21 36 -25 49 -17 20 13 144 192 177 256 33 64 26 81 -11 26
-16 -24 -30 -46 -32 -48 -2 -2 -33 10 -70 27 -80 37 -172 62 -225 62 l-38 0 0
149 0 149 62 31 c82 42 182 43 296 5 l77 -25 48 -107 c121 -271 328 -567 376
-538 8 5 11 211 11 716 l0 709 38 7 c96 18 188 123 218 249 7 29 6 29 -12 14
-56 -46 -230 -53 -311 -11 -23 12 -47 22 -52 22 -8 0 -132 -140 -259 -292 -28
-34 -1 -18 48 28 l49 46 58 -22 c32 -12 90 -28 128 -34 l70 -12 -2 -178 c-1
-98 -4 -180 -7 -183 -10 -10 -250 -15 -274 -6 -18 7 -41 46 -92 156 -124 267
-244 443 -334 489 -51 26 -168 33 -241 15z m162 -279 c89 -94 129 -171 266
-518 l93 -235 -70 23 c-98 33 -219 29 -294 -10 l-52 -27 0 404 c0 223 4 405 8
405 4 0 26 -19 49 -42z m783 -738 c-1 -299 -2 -323 -17 -305 -30 38 -120 240
-188 420 -37 99 -71 187 -75 195 -7 13 11 15 136 15 l144 1 0 -326z"/>
<path d="M21566 3588 c-205 -45 -343 -158 -375 -308 -39 -182 25 -282 222
-348 77 -26 148 -39 225 -42 6 0 12 -5 12 -11 0 -13 -45 -80 -51 -75 -2 3 -33
7 -69 11 -97 10 -246 51 -304 83 -85 48 -109 100 -80 177 9 26 -74 -66 -103
-114 -35 -55 -32 -143 5 -202 53 -82 138 -139 257 -169 43 -11 98 -20 122 -20
42 0 43 -1 32 -22 -61 -118 -143 -200 -183 -185 -14 6 -14 10 5 46 25 48 20
73 -24 119 -66 69 -167 26 -167 -71 1 -125 97 -196 203 -149 49 22 98 77 169
192 49 79 37 75 188 60 121 -12 220 -42 265 -81 43 -38 63 -97 46 -135 -21
-46 -4 -37 43 23 176 223 73 395 -253 424 -58 5 -106 11 -108 13 -2 2 6 20 18
41 l23 38 65 -7 c36 -3 82 -8 101 -11 19 -2 55 -7 80 -10 107 -12 157 -34 225
-96 48 -44 60 -71 64 -139 2 -36 -7 -63 -42 -135 -48 -98 -113 -181 -206 -262
l-60 -53 -74 30 c-140 56 -190 65 -347 65 -134 -1 -151 -3 -218 -29 -121 -46
-190 -93 -312 -213 l-115 -113 98 45 c336 156 584 147 774 -28 l43 -39 33 38
c58 66 350 394 435 489 65 71 89 108 118 175 34 78 37 93 38 185 1 90 -2 105
-26 151 -47 90 -112 133 -253 168 -73 18 -93 22 -184 30 -30 3 -56 8 -59 11
-8 8 146 192 212 251 33 31 80 67 104 81 23 14 42 27 42 29 0 11 -57 -7 -82
-26 -15 -11 -30 -20 -34 -20 -3 0 -26 18 -51 40 -114 100 -301 138 -487 98z
m99 -137 c80 -44 157 -121 185 -184 25 -54 25 -64 -2 -104 l-23 -32 -140 5
c-193 7 -268 28 -327 91 -82 86 -51 176 82 237 82 39 138 35 225 -13z"/>
<path d="M16228 3595 c-2 -2 -19 -5 -38 -8 -66 -8 -132 -54 -189 -129 -6 -9
-27 -52 -45 -96 l-34 -80 41 38 c22 22 55 46 73 55 41 19 131 19 214 -1 36 -9
103 -17 150 -19 137 -6 233 43 281 142 11 24 25 45 30 49 5 3 13 13 19 23 9
17 7 18 -33 4 -66 -23 -169 -21 -302 6 -48 10 -162 21 -167 16z"/>
<path d="M9813 3572 c-84 -30 -164 -104 -208 -192 -10 -19 -34 -57 -53 -85
-35 -48 -35 -49 -6 -22 17 15 34 27 39 27 4 0 31 11 59 25 100 48 187 36 269
-37 47 -43 47 -43 36 -80 -7 -21 -15 -38 -19 -38 -4 0 -31 8 -61 18 -153 50
-265 7 -307 -118 -11 -32 -18 -60 -16 -63 3 -2 0 -26 -7 -53 -6 -27 -13 -60
-15 -74 l-4 -25 16 26 c20 32 71 67 115 79 70 20 132 7 171 -36 15 -18 9 -40
-105 -365 l-121 -347 -38 -5 c-56 -8 -156 -58 -211 -107 -27 -24 -70 -76 -98
-116 -27 -40 -53 -75 -59 -79 -5 -3 -10 -11 -10 -16 0 -5 11 -3 23 6 28 18
173 50 267 60 106 11 240 -22 279 -69 8 -9 17 -16 22 -16 5 0 49 60 98 133 49
72 102 149 117 170 34 46 26 58 -12 17 -35 -36 -41 -36 -146 -6 -46 13 -109
27 -141 31 -38 4 -57 11 -54 18 2 7 23 66 46 132 l42 120 258 -3 258 -3 28
-72 c94 -242 204 -448 270 -506 56 -49 76 -43 131 42 26 39 76 110 111 155 35
46 68 95 73 108 l9 23 -32 -19 c-69 -42 -150 -18 -205 62 -46 67 -55 88 -137
328 -139 406 -286 760 -372 896 -36 57 -90 84 -180 90 -51 3 -81 0 -120 -14z
m237 -477 c46 -95 130 -342 130 -384 0 -8 -54 -11 -191 -11 -149 0 -190 3
-187 13 3 6 42 124 88 260 97 285 85 275 160 122z"/>
<path d="M12324 3576 c-17 -45 21 -171 62 -207 58 -50 78 -54 282 -51 l192 3
0 -569 0 -569 -73 -12 c-159 -26 -343 -152 -462 -316 -31 -42 -18 -37 40 16
116 107 325 116 567 25 l86 -33 64 54 c124 106 229 147 361 141 45 -2 71 1 70
7 -1 6 -14 41 -28 78 l-25 68 0 585 c0 575 0 585 -21 629 -25 53 -83 106 -136
125 -29 10 -149 15 -488 20 -247 3 -458 9 -467 14 -13 6 -20 3 -24 -8z m823
-283 c67 -43 82 -80 82 -210 l1 -112 -38 -11 c-79 -22 -199 -9 -284 30 l-27
13 0 149 c-1 82 1 154 4 159 4 5 55 9 114 9 99 0 110 -2 148 -27z m-187 -346
c65 -20 87 -22 170 -16 52 4 96 6 97 5 2 -2 0 -91 -4 -199 l-6 -196 -41 21
c-54 28 -150 28 -228 1 l-58 -20 0 198 c0 108 -3 204 -6 213 -8 20 -14 20 76
-7z m221 -418 l39 -19 0 -205 0 -205 -26 -6 c-28 -7 -54 0 -152 41 -35 14 -82
29 -105 33 l-42 8 -3 167 -2 168 36 15 c90 38 186 39 255 3z"/>
<path d="M19395 3580 c-3 -5 -32 -26 -63 -47 -85 -56 -174 -149 -208 -218
l-29 -60 -5 -565 c-5 -516 -7 -568 -23 -605 -36 -81 -93 -118 -206 -136 -127
-19 -277 19 -343 88 -15 15 -34 45 -43 67 -16 37 -16 38 2 31 32 -14 117 -17
146 -6 33 13 48 49 49 118 1 66 -26 105 -87 129 -84 32 -193 -5 -232 -78 -57
-109 35 -297 185 -376 93 -49 181 -64 304 -51 226 23 377 109 444 253 44 96
47 133 41 611 -3 260 -1 475 5 510 12 81 66 302 78 326 11 20 -3 28 -15 9z"/>
<path d="M19089 3334 c-13 -14 -54 -41 -90 -60 -127 -67 -206 -171 -216 -284
l-5 -56 -60 -17 c-70 -21 -141 -81 -158 -133 -13 -39 -7 -142 10 -173 l11 -21
22 21 c28 27 91 55 141 62 l38 6 -5 -252 c-3 -155 -9 -267 -17 -292 -6 -22
-30 -61 -52 -87 -21 -27 -34 -48 -27 -48 29 0 161 73 208 116 99 89 96 71 97
524 1 217 5 413 8 436 9 57 53 174 76 204 38 47 53 71 48 75 -2 3 -15 -7 -29
-21z"/>
<path d="M16595 3340 c-4 -6 -32 -29 -63 -52 -121 -89 -202 -201 -202 -277 0
-20 -3 -52 -6 -72 -6 -36 -7 -37 -52 -37 -113 -3 -166 -109 -141 -282 7 -47
14 -76 16 -65 14 72 43 98 126 110 l47 7 0 -125 c0 -123 -20 -279 -41 -321 -7
-11 -21 -31 -32 -43 -26 -29 -24 -29 53 3 125 50 187 110 232 223 22 53 23 69
25 336 1 293 4 339 29 470 25 131 27 153 9 125z"/>
<path d="M6058 3283 c-98 -50 -166 -115 -200 -191 -16 -35 -28 -68 -27 -75 1
-7 1 -26 0 -42 -1 -28 -5 -31 -53 -43 -97 -22 -148 -81 -148 -169 0 -52 21
-123 36 -123 5 0 20 12 35 26 21 20 42 28 79 32 l50 5 0 -144 c-1 -181 -19
-291 -54 -328 -14 -15 -26 -30 -26 -33 0 -4 33 11 73 33 94 52 170 127 210
209 l32 65 7 275 c8 313 12 364 38 464 10 39 17 71 16 72 0 1 -31 -14 -68 -33z"/>
<path d="M12763 3240 c-122 -32 -198 -82 -232 -153 -17 -34 -21 -63 -21 -135
l0 -92 -37 0 c-99 0 -153 -72 -153 -200 1 -71 17 -161 33 -176 4 -4 7 10 7 32
0 21 9 54 20 72 16 26 26 32 52 32 79 0 78 1 78 -129 0 -179 -24 -282 -78
-343 -21 -25 -9 -22 36 6 20 13 57 35 82 49 60 33 145 124 173 184 21 46 22
59 23 383 1 184 4 348 7 363 6 31 45 97 56 97 4 0 16 7 27 15 25 19 14 18 -73
-5z"/>
<path d="M6035 2246 c-77 -24 -145 -67 -217 -134 -84 -79 -162 -182 -149 -195
6 -6 38 2 83 21 194 81 390 78 536 -9 l35 -20 25 23 c59 55 222 248 222 264 0
15 -4 14 -25 -6 l-26 -24 -47 19 c-164 64 -205 75 -302 74 -52 0 -113 -6 -135
-13z"/>
</g>
</svg>
