<?xml version="1.0" standalone="no"?>
<!DOCTYPE svg PUBLIC "-//W3C//DTD SVG 20010904//EN"
 "http://www.w3.org/TR/2001/REC-SVG-20010904/DTD/svg10.dtd">
<svg version="1.0" xmlns="http://www.w3.org/2000/svg"
 width="269.000000pt" height="151.000000pt" viewBox="0 0 269.000000 151.000000"
 preserveAspectRatio="xMidYMid meet">

<g transform="translate(0.000000,151.000000) scale(0.100000,-0.100000)"
fill="#000000" stroke="none">
<path d="M1220 1218 c-3 -3 -34 -8 -70 -11 -72 -7 -77 -8 -170 -32 -126 -32
-232 -68 -330 -112 -56 -25 -200 -121 -262 -175 -104 -90 -168 -213 -168 -323
0 -58 19 -135 35 -141 15 -6 233 51 455 118 l175 53 -3 55 c-4 69 4 78 123
124 92 35 114 40 223 55 113 16 261 -6 405 -61 90 -35 119 -67 110 -122 -3
-20 0 -36 9 -43 14 -11 300 -84 498 -127 87 -19 116 -22 123 -13 4 7 6 48 5
93 -3 69 -8 90 -40 155 -104 210 -401 406 -727 480 -80 18 -379 38 -391 27z"/>
<path d="M1742 502 c3 -74 4 -77 37 -99 46 -31 169 -69 303 -93 165 -30 172
-29 229 29 54 53 61 76 27 91 -21 9 -446 114 -508 126 -14 3 -40 9 -58 14
l-33 9 3 -77z"/>
<path d="M812 544 c-40 -12 -75 -23 -77 -23 -3 0 -31 -8 -63 -17 -31 -9 -131
-36 -222 -58 -145 -37 -165 -44 -168 -63 -3 -23 39 -98 59 -105 40 -13 236 30
388 85 138 51 164 76 159 154 l-3 49 -73 -22z"/>
</g>
</svg>
